<svg width="59" height="55" viewBox="0 0 59 55" fill="none" xmlns="http://www.w3.org/2000/svg">
<path d="M53.6364 38.7492V6.34922H5.36364V38.7492H53.6364ZM53.6364 0.949219C55.0589 0.949219 56.4232 1.51815 57.429 2.53084C58.4349 3.54354 59 4.91705 59 6.34922V38.7492C59 40.1814 58.4349 41.5549 57.429 42.5676C56.4232 43.5803 55.0589 44.1492 53.6364 44.1492H34.8636V49.5492H40.2273V54.9492H18.7727V49.5492H24.1364V44.1492H5.36364C2.38682 44.1492 0 41.7192 0 38.7492V6.34922C0 3.35222 2.38682 0.949219 5.36364 0.949219H53.6364ZM10.7273 11.7492H34.8636V25.2492H10.7273V11.7492ZM37.5455 11.7492H48.2727V17.1492H37.5455V11.7492ZM48.2727 19.8492V33.3492H37.5455V19.8492H48.2727ZM10.7273 27.9492H21.4545V33.3492H10.7273V27.9492ZM24.1364 27.9492H34.8636V33.3492H24.1364V27.9492Z" fill="white"/>
</svg>
