<svg width="61" height="68" viewBox="0 0 61 68" fill="none" xmlns="http://www.w3.org/2000/svg">
<path d="M8.21428 0.949219C7.10972 0.949219 6.21429 1.84465 6.21429 2.94922V4.69719C6.21429 5.80176 5.31886 6.69719 4.21429 6.69719H2.5C1.39543 6.69719 0.5 7.59262 0.5 8.69719V65.0509C0.5 66.1555 1.39543 67.0509 2.5 67.0509H58.5C59.6046 67.0509 60.5 66.1555 60.5 65.0509V20.1931C60.5 19.0886 59.6046 18.1931 58.5 18.1931H39.6429C38.5383 18.1931 37.6429 17.2977 37.6429 16.1931V8.69719C37.6429 7.59262 36.7474 6.69719 35.6429 6.69719H33.9286C32.824 6.69719 31.9286 5.80176 31.9286 4.69719V2.94922C31.9286 1.84465 31.0331 0.949219 29.9286 0.949219H8.21428ZM9.07143 5.82321C9.07143 4.71864 9.96686 3.82321 11.0714 3.82321H27.0714C28.176 3.82321 29.0714 4.71864 29.0714 5.82321V7.57118C29.0714 8.67575 29.9669 9.57118 31.0714 9.57118H32.7857C33.8903 9.57118 34.7857 10.4666 34.7857 11.5712V62.1769C34.7857 63.2815 33.8903 64.1769 32.7857 64.1769H23.9286C22.824 64.1769 21.9286 63.2815 21.9286 62.1769V56.118C21.9286 55.0134 21.0331 54.118 19.9286 54.118H18.2143C17.1097 54.118 16.2143 55.0134 16.2143 56.118V62.1769C16.2143 63.2815 15.3189 64.1769 14.2143 64.1769H5.35714C4.25257 64.1769 3.35714 63.2815 3.35714 62.1769V11.5712C3.35714 10.4666 4.25257 9.57118 5.35714 9.57118H7.07143C8.176 9.57118 9.07143 8.67575 9.07143 7.57118V5.82321ZM10.5 12.4452C9.71102 12.4452 9.07143 13.0932 9.07143 13.8822V13.8822C9.07143 14.6711 9.71102 15.3192 10.5 15.3192V15.3192C11.289 15.3192 11.9286 14.6711 11.9286 13.8822V13.8822C11.9286 13.0932 11.289 12.4452 10.5 12.4452V12.4452ZM16.2143 12.4452C15.4253 12.4452 14.7857 13.0932 14.7857 13.8822V13.8822C14.7857 14.6711 15.4253 15.3192 16.2143 15.3192V15.3192C17.0033 15.3192 17.6429 14.6711 17.6429 13.8822V13.8822C17.6429 13.0932 17.0033 12.4452 16.2143 12.4452V12.4452ZM21.9286 12.4452C21.1396 12.4452 20.5 13.0932 20.5 13.8822V13.8822C20.5 14.6711 21.1396 15.3192 21.9286 15.3192V15.3192C22.7176 15.3192 23.3571 14.6711 23.3571 13.8822V13.8822C23.3571 13.0932 22.7176 12.4452 21.9286 12.4452V12.4452ZM27.6429 12.4452C26.8539 12.4452 26.2143 13.0932 26.2143 13.8822V13.8822C26.2143 14.6711 26.8539 15.3192 27.6429 15.3192V15.3192C28.4318 15.3192 29.0714 14.6711 29.0714 13.8822V13.8822C29.0714 13.0932 28.4318 12.4452 27.6429 12.4452V12.4452ZM10.5 19.6301C9.71102 19.6301 9.07143 20.2697 9.07143 21.0587V23.9495C9.07143 24.7385 9.71102 25.3781 10.5 25.3781V25.3781C11.289 25.3781 11.9286 24.7385 11.9286 23.9495V21.0587C11.9286 20.2697 11.289 19.6301 10.5 19.6301V19.6301ZM16.2143 19.6301C15.4253 19.6301 14.7857 20.2697 14.7857 21.0587V23.9495C14.7857 24.7385 15.4253 25.3781 16.2143 25.3781V25.3781C17.0033 25.3781 17.6429 24.7385 17.6429 23.9495V21.0587C17.6429 20.2697 17.0033 19.6301 16.2143 19.6301V19.6301ZM21.9286 19.6301C21.1396 19.6301 20.5 20.2697 20.5 21.0587V23.9495C20.5 24.7385 21.1396 25.3781 21.9286 25.3781V25.3781C22.7176 25.3781 23.3571 24.7385 23.3571 23.9495V21.0587C23.3571 20.2697 22.7176 19.6301 21.9286 19.6301V19.6301ZM27.6429 19.6301C26.8539 19.6301 26.2143 20.2697 26.2143 21.0587V23.9495C26.2143 24.7385 26.8539 25.3781 27.6429 25.3781V25.3781C28.4318 25.3781 29.0714 24.7385 29.0714 23.9495V21.0587C29.0714 20.2697 28.4318 19.6301 27.6429 19.6301V19.6301ZM37.6429 23.0671C37.6429 21.9626 38.5383 21.0671 39.6429 21.0671H55.6429C56.7474 21.0671 57.6429 21.9626 57.6429 23.0671V62.1769C57.6429 63.2815 56.7474 64.1769 55.6429 64.1769H39.6429C38.5383 64.1769 37.6429 63.2815 37.6429 62.1769V23.0671ZM41.9286 23.9411C41.1396 23.9411 40.5 24.5891 40.5 25.3781V25.3781C40.5 26.1671 41.1396 26.8151 41.9286 26.8151V26.8151C42.7176 26.8151 43.3571 26.1671 43.3571 25.3781V25.3781C43.3571 24.5891 42.7176 23.9411 41.9286 23.9411V23.9411ZM47.6429 23.9411C46.8539 23.9411 46.2143 24.5891 46.2143 25.3781V25.3781C46.2143 26.1671 46.8539 26.8151 47.6429 26.8151V26.8151C48.4318 26.8151 49.0714 26.1671 49.0714 25.3781V25.3781C49.0714 24.5891 48.4318 23.9411 47.6429 23.9411V23.9411ZM53.3571 23.9411C52.5682 23.9411 51.9286 24.5891 51.9286 25.3781V25.3781C51.9286 26.1671 52.5682 26.8151 53.3571 26.8151V26.8151C54.1461 26.8151 54.7857 26.1671 54.7857 25.3781V25.3781C54.7857 24.5891 54.1461 23.9411 53.3571 23.9411V23.9411ZM10.5 28.2521C9.71102 28.2521 9.07143 28.8917 9.07143 29.6807V32.5715C9.07143 33.3605 9.71102 34.0001 10.5 34.0001V34.0001C11.289 34.0001 11.9286 33.3605 11.9286 32.5715V29.6807C11.9286 28.8917 11.289 28.2521 10.5 28.2521V28.2521ZM16.2143 28.2521C15.4253 28.2521 14.7857 28.8917 14.7857 29.6807V32.5715C14.7857 33.3605 15.4253 34.0001 16.2143 34.0001V34.0001C17.0033 34.0001 17.6429 33.3605 17.6429 32.5715V29.6807C17.6429 28.8917 17.0033 28.2521 16.2143 28.2521V28.2521ZM21.9286 28.2521C21.1396 28.2521 20.5 28.8917 20.5 29.6807V32.5715C20.5 33.3605 21.1396 34.0001 21.9286 34.0001V34.0001C22.7176 34.0001 23.3571 33.3605 23.3571 32.5715V29.6807C23.3571 28.8917 22.7176 28.2521 21.9286 28.2521V28.2521ZM27.6429 28.2521C26.8539 28.2521 26.2143 28.8917 26.2143 29.6807V32.5715C26.2143 33.3605 26.8539 34.0001 27.6429 34.0001V34.0001C28.4318 34.0001 29.0714 33.3605 29.0714 32.5715V29.6807C29.0714 28.8917 28.4318 28.2521 27.6429 28.2521V28.2521ZM41.9286 29.6891C41.1396 29.6891 40.5 30.3371 40.5 31.1261V31.1261C40.5 31.9151 41.1396 32.5631 41.9286 32.5631V32.5631C42.7176 32.5631 43.3571 31.9151 43.3571 31.1261V31.1261C43.3571 30.3371 42.7176 29.6891 41.9286 29.6891V29.6891ZM47.6429 29.6891C46.8539 29.6891 46.2143 30.3371 46.2143 31.1261V31.1261C46.2143 31.9151 46.8539 32.5631 47.6429 32.5631V32.5631C48.4318 32.5631 49.0714 31.9151 49.0714 31.1261V31.1261C49.0714 30.3371 48.4318 29.6891 47.6429 29.6891V29.6891ZM53.3571 29.6891C52.5682 29.6891 51.9286 30.3371 51.9286 31.1261V31.1261C51.9286 31.9151 52.5682 32.5631 53.3571 32.5631V32.5631C54.1461 32.5631 54.7857 31.9151 54.7857 31.1261V31.1261C54.7857 30.3371 54.1461 29.6891 53.3571 29.6891V29.6891ZM41.9286 35.4371C41.1396 35.4371 40.5 36.0851 40.5 36.8741V36.8741C40.5 37.663 41.1396 38.311 41.9286 38.311V38.311C42.7176 38.311 43.3571 37.663 43.3571 36.8741V36.8741C43.3571 36.0851 42.7176 35.4371 41.9286 35.4371V35.4371ZM47.6429 35.4371C46.8539 35.4371 46.2143 36.0851 46.2143 36.8741V36.8741C46.2143 37.663 46.8539 38.311 47.6429 38.311V38.311C48.4318 38.311 49.0714 37.663 49.0714 36.8741V36.8741C49.0714 36.0851 48.4318 35.4371 47.6429 35.4371V35.4371ZM53.3571 35.4371C52.5682 35.4371 51.9286 36.0851 51.9286 36.8741V36.8741C51.9286 37.663 52.5682 38.311 53.3571 38.311V38.311C54.1461 38.311 54.7857 37.663 54.7857 36.8741V36.8741C54.7857 36.0851 54.1461 35.4371 53.3571 35.4371V35.4371ZM10.5 36.8741C9.71102 36.8741 9.07143 37.5136 9.07143 38.3026V41.1935C9.07143 41.9824 9.71102 42.622 10.5 42.622V42.622C11.289 42.622 11.9286 41.9824 11.9286 41.1934V38.3026C11.9286 37.5136 11.289 36.8741 10.5 36.8741V36.8741ZM16.2143 36.8741C15.4253 36.8741 14.7857 37.5136 14.7857 38.3026V41.1934C14.7857 41.9824 15.4253 42.622 16.2143 42.622V42.622C17.0033 42.622 17.6429 41.9824 17.6429 41.1934V38.3026C17.6429 37.5136 17.0033 36.8741 16.2143 36.8741V36.8741ZM21.9286 36.8741C21.1396 36.8741 20.5 37.5136 20.5 38.3026V41.1934C20.5 41.9824 21.1396 42.622 21.9286 42.622V42.622C22.7176 42.622 23.3571 41.9824 23.3571 41.1934V38.3026C23.3571 37.5136 22.7176 36.8741 21.9286 36.8741V36.8741ZM27.6429 36.8741C26.8539 36.8741 26.2143 37.5136 26.2143 38.3026V41.1935C26.2143 41.9824 26.8539 42.622 27.6429 42.622V42.622C28.4318 42.622 29.0714 41.9824 29.0714 41.1935V38.3026C29.0714 37.5136 28.4318 36.8741 27.6429 36.8741V36.8741ZM41.9286 41.185C41.1396 41.185 40.5 41.833 40.5 42.622V42.622C40.5 43.411 41.1396 44.059 41.9286 44.059V44.059C42.7176 44.059 43.3571 43.411 43.3571 42.622V42.622C43.3571 41.833 42.7176 41.185 41.9286 41.185V41.185ZM47.6429 41.185C46.8539 41.185 46.2143 41.833 46.2143 42.622V42.622C46.2143 43.411 46.8539 44.059 47.6429 44.059V44.059C48.4318 44.059 49.0714 43.411 49.0714 42.622V42.622C49.0714 41.833 48.4318 41.185 47.6429 41.185V41.185ZM53.3571 41.185C52.5682 41.185 51.9286 41.833 51.9286 42.622V42.622C51.9286 43.411 52.5682 44.059 53.3571 44.059V44.059C54.1461 44.059 54.7857 43.411 54.7857 42.622V42.622C54.7857 41.833 54.1461 41.185 53.3571 41.185V41.185ZM10.5 45.496C9.71102 45.496 9.07143 46.1356 9.07143 46.9246V49.8154C9.07143 50.6044 9.71102 51.244 10.5 51.244V51.244C11.289 51.244 11.9286 50.6044 11.9286 49.8154V46.9246C11.9286 46.1356 11.289 45.496 10.5 45.496V45.496ZM16.2143 45.496C15.4253 45.496 14.7857 46.1356 14.7857 46.9246V49.8154C14.7857 50.6044 15.4253 51.244 16.2143 51.244V51.244C17.0033 51.244 17.6429 50.6044 17.6429 49.8154V46.9246C17.6429 46.1356 17.0033 45.496 16.2143 45.496V45.496ZM21.9286 45.496C21.1396 45.496 20.5 46.1356 20.5 46.9246V49.8154C20.5 50.6044 21.1396 51.244 21.9286 51.244V51.244C22.7176 51.244 23.3571 50.6044 23.3571 49.8154V46.9246C23.3571 46.1356 22.7176 45.496 21.9286 45.496V45.496ZM27.6429 45.496C26.8539 45.496 26.2143 46.1356 26.2143 46.9246V49.8154C26.2143 50.6044 26.8539 51.244 27.6429 51.244V51.244C28.4318 51.244 29.0714 50.6044 29.0714 49.8154V46.9246C29.0714 46.1356 28.4318 45.496 27.6429 45.496V45.496ZM41.9286 46.933C41.1396 46.933 40.5 47.581 40.5 48.37V48.37C40.5 49.159 41.1396 49.807 41.9286 49.807V49.807C42.7176 49.807 43.3571 49.159 43.3571 48.37V48.37C43.3571 47.581 42.7176 46.933 41.9286 46.933V46.933ZM47.6429 46.933C46.8539 46.933 46.2143 47.581 46.2143 48.37V48.37C46.2143 49.159 46.8539 49.807 47.6429 49.807V49.807C48.4318 49.807 49.0714 49.159 49.0714 48.37V48.37C49.0714 47.581 48.4318 46.933 47.6429 46.933V46.933ZM53.3571 46.933C52.5682 46.933 51.9286 47.581 51.9286 48.37V48.37C51.9286 49.159 52.5682 49.807 53.3571 49.807V49.807C54.1461 49.807 54.7857 49.159 54.7857 48.37V48.37C54.7857 47.581 54.1461 46.933 53.3571 46.933V46.933ZM41.9286 52.681C41.1396 52.681 40.5 53.329 40.5 54.118V54.118C40.5 54.9069 41.1396 55.555 41.9286 55.555V55.555C42.7176 55.555 43.3571 54.9069 43.3571 54.118V54.118C43.3571 53.329 42.7176 52.681 41.9286 52.681V52.681ZM47.6429 52.681C46.8539 52.681 46.2143 53.329 46.2143 54.118V54.118C46.2143 54.9069 46.8539 55.555 47.6429 55.555V55.555C48.4318 55.555 49.0714 54.9069 49.0714 54.118V54.118C49.0714 53.329 48.4318 52.681 47.6429 52.681V52.681ZM53.3571 52.681C52.5682 52.681 51.9286 53.329 51.9286 54.118V54.118C51.9286 54.9069 52.5682 55.555 53.3571 55.555V55.555C54.1461 55.555 54.7857 54.9069 54.7857 54.118V54.118C54.7857 53.329 54.1461 52.681 53.3571 52.681V52.681ZM10.5 54.118C9.71102 54.118 9.07143 54.7576 9.07143 55.5465V59.8744C9.07143 60.6633 9.71102 61.3029 10.5 61.3029V61.3029C11.289 61.3029 11.9286 60.6633 11.9286 59.8744V55.5465C11.9286 54.7576 11.289 54.118 10.5 54.118V54.118ZM27.6429 54.118C26.8539 54.118 26.2143 54.7576 26.2143 55.5465V59.8744C26.2143 60.6633 26.8539 61.3029 27.6429 61.3029V61.3029C28.4318 61.3029 29.0714 60.6633 29.0714 59.8744V55.5465C29.0714 54.7576 28.4318 54.118 27.6429 54.118V54.118ZM41.9286 58.4289C41.1396 58.4289 40.5 59.077 40.5 59.8659V59.8659C40.5 60.6549 41.1396 61.3029 41.9286 61.3029V61.3029C42.7176 61.3029 43.3571 60.6549 43.3571 59.8659V59.8659C43.3571 59.077 42.7176 58.4289 41.9286 58.4289V58.4289ZM47.6429 58.4289C46.8539 58.4289 46.2143 59.077 46.2143 59.8659V59.8659C46.2143 60.6549 46.8539 61.3029 47.6429 61.3029V61.3029C48.4318 61.3029 49.0714 60.6549 49.0714 59.8659V59.8659C49.0714 59.077 48.4318 58.4289 47.6429 58.4289V58.4289ZM53.3571 58.4289C52.5682 58.4289 51.9286 59.077 51.9286 59.8659V59.8659C51.9286 60.6549 52.5682 61.3029 53.3571 61.3029V61.3029C54.1461 61.3029 54.7857 60.6549 54.7857 59.8659V59.8659C54.7857 59.077 54.1461 58.4289 53.3571 58.4289V58.4289Z" fill="white"/>
</svg>
