<svg width="83" height="56" viewBox="0 0 83 56" fill="none" xmlns="http://www.w3.org/2000/svg">
<path d="M15.8363 36.3201H29.0221L25.8363 42.3631H1.5L23.1814 0.5H34.6858L15.8363 36.3201Z" fill="#D9F2F9"/>
<path d="M41.5885 15.4761H30.0841L32.9159 10.4841H56.7212L53.8894 15.0382H59.1991L66.2788 18.1035C66.4557 17.3445 68.3142 17.1401 69.2876 17.1401L72.7389 14.6879L81.5 18.1035L64.2434 51.8217H53.3584L69.2876 20.906C70.2611 19.1545 68.3142 17.4904 66.8097 19.1545L49.9071 51.121H39.1106L55.7478 18.1035H52.9159L33.2699 55.5H21.677L41.5885 15.4761Z" fill="#D9F2F9"/>
<path d="M15.8363 36.3201H29.0221L25.8363 42.3631H1.5L23.1814 0.5H34.6858L15.8363 36.3201Z" stroke="white"/>
<path d="M41.5885 15.4761H30.0841L32.9159 10.4841H56.7212L53.8894 15.0382H59.1991L66.2788 18.1035C66.4557 17.3445 68.3142 17.1401 69.2876 17.1401L72.7389 14.6879L81.5 18.1035L64.2434 51.8217H53.3584L69.2876 20.906C70.2611 19.1545 68.3142 17.4904 66.8097 19.1545L49.9071 51.121H39.1106L55.7478 18.1035H52.9159L33.2699 55.5H21.677L41.5885 15.4761Z" stroke="white"/>
</svg>
