<svg width="59" height="60" viewBox="0 0 59 60" fill="none" xmlns="http://www.w3.org/2000/svg">
<path d="M35.033 22.1736V25.8608C35.033 26.6212 34.4107 27.2434 33.6501 27.2434H27.1966V33.6959C27.1966 34.4564 26.5743 35.0786 25.8138 35.0786H22.1261C21.3655 35.0786 20.7432 34.4564 20.7432 33.6959V27.2434H14.2898C13.5292 27.2434 12.9069 26.6212 12.9069 25.8608V22.1736C12.9069 21.4131 13.5292 20.7909 14.2898 20.7909H20.7432V14.3384C20.7432 13.578 21.3655 12.9558 22.1261 12.9558H25.8138C26.5743 12.9558 27.1966 13.578 27.1966 14.3384V20.7909H33.6501C34.4107 20.7909 35.033 21.4131 35.033 22.1736ZM58.1962 54.9776L54.9349 58.2385C53.8517 59.3216 52.1 59.3216 51.0283 58.2385L39.5273 46.7507C39.0087 46.2322 38.7206 45.5293 38.7206 44.7919V42.9138C34.6527 46.0939 29.536 47.9836 23.9699 47.9836C10.7288 47.9836 0 37.2563 0 24.0172C0 10.7781 10.7288 0.0507812 23.9699 0.0507812C37.211 0.0507812 47.9398 10.7781 47.9398 24.0172C47.9398 29.5825 46.0499 34.6984 42.8693 38.7658H44.7477C45.4852 38.7658 46.1882 39.0538 46.7068 39.5723L58.1962 51.0601C59.2679 52.1432 59.2679 53.8946 58.1962 54.9776ZM39.6426 24.0172C39.6426 15.3524 32.636 8.34685 23.9699 8.34685C15.3039 8.34685 8.29728 15.3524 8.29728 24.0172C8.29728 32.682 15.3039 39.6875 23.9699 39.6875C32.636 39.6875 39.6426 32.682 39.6426 24.0172Z" fill="white"/>
</svg>
