<svg width="67" height="49" viewBox="0 0 67 49" fill="none" xmlns="http://www.w3.org/2000/svg">
<path d="M61.6807 9.56382H5.03191C2.53936 9.56382 0.5 7.52446 0.5 5.03191C0.5 2.53936 2.53936 0.5 5.03191 0.5H61.6807C64.1733 0.5 66.2127 2.53936 66.2127 5.03191C66.2127 7.52446 64.1733 9.56382 61.6807 9.56382Z" fill="white"/>
<path d="M61.9483 48.5H5.05172C2.54828 48.5 0.5 46.7 0.5 44.5C0.5 42.3 2.54828 40.5 5.05172 40.5H61.9483C64.4517 40.5 66.5 42.3 66.5 44.5C66.5 46.7 64.4517 48.5 61.9483 48.5Z" fill="white"/>
<path d="M61.6807 29.6275H5.03191C2.53936 29.6275 0.5 27.5882 0.5 25.0956C0.5 22.6031 2.53936 20.5637 5.03191 20.5637H61.6807C64.1733 20.5637 66.2127 22.6031 66.2127 25.0956C66.2127 27.5882 64.1733 29.6275 61.6807 29.6275Z" fill="white"/>
</svg>
